<svg xmlns="http://www.w3.org/2000/svg" viewBox="0 0 512 512">
  <defs>
    <linearGradient id="bgGrad" x1="0%" y1="0%" x2="100%" y2="100%">
      <stop offset="0%" style="stop-color:#7c3aed"/>
      <stop offset="100%" style="stop-color:#4f46e5"/>
    </linearGradient>
  </defs>
  <!-- Background -->
  <rect width="512" height="512" rx="96" fill="url(#bgGrad)"/>
  <!-- Hand Icon -->
  <g transform="translate(96, 80) scale(1.2)">
    <path fill="#fbbf24" d="M170 55c-15-15-40-15-55 0s-15 40 0 55l25 25V300c0 22 18 40 40 40s40-18 40-40V135l25-25c15-15 15-40 0-55s-40-15-55 0l-10 10-10-10z"/>
    <path fill="#f59e0b" d="M120 120c-22 0-40 18-40 40v140c0 22 18 40 40 40s40-18 40-40V160c0-22-18-40-40-40z"/>
    <path fill="#fbbf24" d="M60 160c-22 0-40 18-40 40v80c0 22 18 40 40 40s40-18 40-40v-80c0-22-18-40-40-40z"/>
    <path fill="#f59e0b" d="M220 120c22 0 40 18 40 40v140c0 22-18 40-40 40s-40-18-40-40V160c0-22 18-40 40-40z"/>
    <path fill="#fbbf24" d="M280 160c22 0 40 18 40 40v80c0 22-18 40-40 40s-40-18-40-40v-80c0-22 18-40 40-40z"/>
  </g>
  <!-- Sparkle -->
  <g fill="#fcd34d">
    <circle cx="420" cy="100" r="12"/>
    <circle cx="380" cy="140" r="8"/>
    <circle cx="440" cy="160" r="6"/>
  </g>
</svg>
